<svg version="1.1" id="Layer_1" xmlns="http://www.w3.org/2000/svg" x="0" y="0" viewBox="0 0 44.8 42.4" xml:space="preserve"><style>.st0{fill:none}.st1{fill:#fda924}</style><path class="st0" d="M33.9 26.1l-17.1 7 2.4 5.8 21-8.6-8.6-21-2 .8L35 23.3c.5 1 0 2.3-1.1 2.8z"/><path transform="rotate(-22.277 21.531 20.84)" class="st0" d="M12.5 13.9h18v13.8h-18z"/><path class="st1" d="M32.4 23.8l-16.6 6.8 1 2.4 17.1-7c1.1-.5 1.6-1.7 1.2-2.8L29.6 10l-2.4 1 5.2 12.8z"/><path class="st1" d="M11.4 32.4l-8.6-21 21-8.6 2.4 5.8 2.4-1L26 1.3C25.5.2 24.3-.3 23.2.1l-21.9 9C.2 9.6-.3 10.8.1 11.9l9 21.9c.5 1.1 1.7 1.6 2.8 1.2l2.4-1-1-2.4-1.9.8zm33.2-2l-9-21.9c-.5-1.1-1.7-1.6-2.8-1.2l-2.4 1 1 2.4 2-.8 8.6 21-21 8.6-2.4-5.8-2.4 1 2.6 6.3c.5 1.1 1.7 1.6 2.8 1.2l21.9-9c1-.5 1.5-1.7 1.1-2.8z"/><path class="st1" d="M26.1 12.6l-.8-2-13.9 5.7c-.9.4-1.3 1.4-1 2.3l4.4 10.7 2-.8-4.3-10.4 13.6-5.5z"/><path transform="rotate(-22.277 15.127 32.332)" class="st1" d="M13.8 31h2.6v2.6h-2.6z"/><path transform="rotate(-22.277 27.936 9.35)" class="st1" d="M26.6 8h2.6v2.6h-2.6z"/></svg>