<svg version="1.1" id="Layer_1" xmlns="http://www.w3.org/2000/svg" x="0" y="0" viewBox="0 0 104.2 99.2" xml:space="preserve"><style>.st0{fill:#d9d9d9}</style><g id="XMLID_333_"><g id="XMLID_887_"><path id="XMLID_892_" class="st0" d="M99 96.6c0-1.4 1.1-2.6 2.6-2.6s2.6 1.1 2.6 2.6-1.1 2.6-2.6 2.6-2.6-1.1-2.6-2.6z"/><path id="XMLID_891_" class="st0" d="M74.3 96.6c0-1.4 1.1-2.6 2.6-2.6s2.6 1.1 2.6 2.6-1.1 2.6-2.6 2.6-2.6-1.1-2.6-2.6z"/><path id="XMLID_890_" class="st0" d="M49.5 96.6c0-1.4 1.1-2.6 2.6-2.6 1.4 0 2.6 1.1 2.6 2.6s-1.1 2.6-2.6 2.6c-1.4 0-2.6-1.1-2.6-2.6z"/><path id="XMLID_889_" class="st0" d="M24.8 96.6c0-1.4 1.1-2.6 2.6-2.6 1.4 0 2.6 1.1 2.6 2.6s-1.1 2.6-2.6 2.6-2.6-1.1-2.6-2.6z"/><path id="XMLID_888_" class="st0" d="M0 96.6C0 95.2 1.1 94 2.6 94s2.6 1.1 2.6 2.6-1.2 2.6-2.6 2.6S0 98.1 0 96.6z"/></g><g id="XMLID_881_"><path id="XMLID_886_" class="st0" d="M99 77.8c0-1.4 1.1-2.6 2.6-2.6s2.6 1.1 2.6 2.6c0 1.4-1.1 2.6-2.6 2.6S99 79.2 99 77.8z"/><path id="XMLID_885_" class="st0" d="M74.3 77.8c0-1.4 1.1-2.6 2.6-2.6s2.6 1.1 2.6 2.6c0 1.4-1.1 2.6-2.6 2.6s-2.6-1.2-2.6-2.6z"/><path id="XMLID_884_" class="st0" d="M49.5 77.8c0-1.4 1.1-2.6 2.6-2.6 1.4 0 2.6 1.1 2.6 2.6 0 1.4-1.1 2.6-2.6 2.6-1.4 0-2.6-1.2-2.6-2.6z"/><path id="XMLID_883_" class="st0" d="M24.8 77.8c0-1.4 1.1-2.6 2.6-2.6 1.4 0 2.6 1.1 2.6 2.6 0 1.4-1.1 2.6-2.6 2.6s-2.6-1.2-2.6-2.6z"/><path id="XMLID_882_" class="st0" d="M0 77.8c0-1.4 1.1-2.6 2.6-2.6s2.6 1.1 2.6 2.6c0 1.4-1.1 2.6-2.6 2.6S0 79.2 0 77.8z"/></g><g id="XMLID_347_"><path id="XMLID_880_" class="st0" d="M99 59c0-1.4 1.1-2.6 2.6-2.6s2.6 1.1 2.6 2.6c0 1.4-1.1 2.6-2.6 2.6S99 60.4 99 59z"/><circle id="XMLID_350_" class="st0" cx="76.8" cy="59" r="2.6"/><path id="XMLID_878_" class="st0" d="M49.5 59c0-1.4 1.1-2.6 2.6-2.6 1.4 0 2.6 1.1 2.6 2.6 0 1.4-1.1 2.6-2.6 2.6-1.4 0-2.6-1.2-2.6-2.6z"/><path id="XMLID_349_" class="st0" d="M24.8 59c0-1.4 1.1-2.6 2.6-2.6 1.4 0 2.6 1.1 2.6 2.6 0 1.4-1.1 2.6-2.6 2.6s-2.6-1.2-2.6-2.6z"/><path id="XMLID_348_" class="st0" d="M0 59c0-1.4 1.1-2.6 2.6-2.6s2.6 1.1 2.6 2.6c0 1.4-1.1 2.6-2.6 2.6S0 60.4 0 59z"/></g><g id="XMLID_343_"><path id="XMLID_874_" class="st0" d="M99 40.2c0-1.4 1.1-2.6 2.6-2.6s2.6 1.1 2.6 2.6c0 1.4-1.1 2.6-2.6 2.6S99 41.6 99 40.2z"/><path id="XMLID_346_" class="st0" d="M74.3 40.2c0-1.4 1.1-2.6 2.6-2.6s2.6 1.1 2.6 2.6c0 1.4-1.1 2.6-2.6 2.6s-2.6-1.2-2.6-2.6z"/><path id="XMLID_345_" class="st0" d="M49.5 40.2c0-1.4 1.1-2.6 2.6-2.6 1.4 0 2.6 1.1 2.6 2.6 0 1.4-1.1 2.6-2.6 2.6-1.4-.1-2.6-1.2-2.6-2.6z"/><path id="XMLID_344_" class="st0" d="M24.8 40.2c0-1.4 1.1-2.6 2.6-2.6 1.4 0 2.6 1.1 2.6 2.6 0 1.4-1.1 2.6-2.6 2.6-1.5-.1-2.6-1.2-2.6-2.6z"/><path id="XMLID_870_" class="st0" d="M0 40.2c0-1.4 1.1-2.6 2.6-2.6s2.6 1.1 2.6 2.6c0 1.4-1.1 2.6-2.6 2.6S0 41.6 0 40.2z"/></g><g id="XMLID_338_"><path id="XMLID_342_" class="st0" d="M99 21.4c0-1.4 1.1-2.6 2.6-2.6s2.6 1.1 2.6 2.6c0 1.4-1.1 2.6-2.6 2.6S99 22.8 99 21.4z"/><path id="XMLID_341_" class="st0" d="M74.3 21.4c0-1.4 1.1-2.6 2.6-2.6s2.6 1.1 2.6 2.6c0 1.4-1.1 2.6-2.6 2.6s-2.6-1.2-2.6-2.6z"/><path id="XMLID_866_" class="st0" d="M49.5 21.4c0-1.4 1.1-2.6 2.6-2.6 1.4 0 2.6 1.1 2.6 2.6 0 1.4-1.1 2.6-2.6 2.6-1.4-.1-2.6-1.2-2.6-2.6z"/><path id="XMLID_340_" class="st0" d="M24.8 21.4c0-1.4 1.1-2.6 2.6-2.6 1.4 0 2.6 1.1 2.6 2.6 0 1.4-1.1 2.6-2.6 2.6-1.5-.1-2.6-1.2-2.6-2.6z"/><path id="XMLID_339_" class="st0" d="M0 21.4c0-1.4 1.1-2.6 2.6-2.6s2.6 1.1 2.6 2.6c0 1.4-1.1 2.6-2.6 2.6S0 22.8 0 21.4z"/></g><g id="XMLID_334_"><path id="XMLID_862_" class="st0" d="M99 2.6c0-1.4 1.1-2.6 2.6-2.6s2.6 1.1 2.6 2.6-1.1 2.6-2.6 2.6S99 4 99 2.6z"/><path id="XMLID_337_" class="st0" d="M74.3 2.6c0-1.4 1.1-2.6 2.6-2.6s2.6 1.1 2.6 2.6-1.1 2.6-2.6 2.6-2.6-1.2-2.6-2.6z"/><path id="XMLID_336_" class="st0" d="M49.5 2.6c0-1.4 1.1-2.6 2.6-2.6 1.4 0 2.6 1.1 2.6 2.6s-1.1 2.6-2.6 2.6c-1.4-.1-2.6-1.2-2.6-2.6z"/><path id="XMLID_335_" class="st0" d="M24.8 2.6c0-1.4 1.1-2.6 2.6-2.6C28.8 0 30 1.1 30 2.6s-1.1 2.6-2.6 2.6c-1.5-.1-2.6-1.2-2.6-2.6z"/><path id="XMLID_858_" class="st0" d="M0 2.6C0 1.1 1.1 0 2.6 0s2.6 1.1 2.6 2.6S4 5.1 2.6 5.1 0 4 0 2.6z"/></g></g></svg>