<svg version="1.1" id="Layer_1" xmlns="http://www.w3.org/2000/svg" x="0" y="0" viewBox="0 0 195.4 42.3" xml:space="preserve"><style>.st0{fill:none}.st1{fill:#fda924}</style><path class="st0" d="M184.6 26.1l-17.1 7 2.4 5.8 21-8.6-8.6-21-2 .8 5.4 13.2c.5 1 0 2.3-1.1 2.8z"/><path transform="rotate(-22.277 172.204 20.832)" class="st0" d="M163.2 13.9h18v13.8h-18z"/><path class="st1" d="M183.1 23.8l-16.6 6.8 1 2.4 17.1-7c1.1-.5 1.6-1.7 1.2-2.8L180.3 10l-2.4 1 5.2 12.8z"/><path class="st1" d="M162.1 32.4l-8.6-21 21-8.6 2.4 5.8 2.4-1-2.6-6.3C176.2.2 175-.3 173.9.1l-21.9 9c-1.1.5-1.6 1.7-1.2 2.8l9 21.9c.5 1.1 1.7 1.6 2.8 1.2l2.4-1-1-2.4-1.9.8zm33.2-2l-9-21.9c-.5-1.1-1.7-1.6-2.8-1.2l-2.4 1 1 2.4 2-.8 8.6 21-21 8.6-2.4-5.8-2.4 1 2.6 6.3c.5 1.1 1.7 1.6 2.8 1.2l21.9-9c1-.5 1.5-1.7 1.1-2.8z"/><path class="st1" d="M176.8 12.6l-.8-2-13.9 5.7c-.9.4-1.3 1.4-1 2.3l4.4 10.7 2-.8-4.3-10.4 13.6-5.5z"/><path transform="rotate(-22.277 165.78 32.34)" class="st1" d="M164.5 31h2.6v2.6h-2.6z"/><path transform="rotate(-22.277 178.629 9.325)" class="st1" d="M177.3 8h2.6v2.6h-2.6z"/><path d="M12.8 36.4l.7 2 .7-2 11.1-30h1.3L14.3 39.6h-1.5L.4 6.4h1.3l11.1 30zM33 39.6h-1.2V6.4H33v33.2zm10.1-1.2h17v1.2H41.8V6.4h1.3v32zm23.8 1.2h-1.2V6.4h1.2v33.2zm28.7-7.9c0-1.4-.3-2.6-1-3.6s-1.7-1.8-3.1-2.6c-1.4-.8-3.6-1.5-6.4-2.3-2.9-.8-5-1.6-6.5-2.4-1.4-.8-2.5-1.8-3.1-2.8s-1-2.4-1-3.9c0-2.4 1-4.4 3.1-5.9s4.7-2.2 8-2.2c2.1 0 4 .4 5.7 1.2 1.7.8 3 2 3.9 3.5.9 1.5 1.4 3.2 1.4 5.1h-1.2c0-2.5-.9-4.5-2.7-6.1s-4.2-2.4-7.1-2.4c-2.9 0-5.3.6-7.1 1.9-1.8 1.3-2.7 2.9-2.7 4.9 0 2 .8 3.6 2.3 4.8s4.1 2.3 7.7 3.2c3.6.9 6.2 2 7.9 3.2 2.1 1.6 3.2 3.7 3.2 6.3 0 1.7-.5 3.1-1.4 4.4-.9 1.3-2.3 2.3-4 3-1.7.7-3.7 1-5.8 1-2.4 0-4.6-.4-6.5-1.2-1.9-.8-3.4-1.9-4.3-3.4-1-1.5-1.4-3.2-1.4-5.2h1.2c0 2.7 1 4.8 3.1 6.3 2 1.5 4.7 2.3 8 2.3 2.9 0 5.3-.7 7.2-2 1.7-1.3 2.6-3 2.6-5.1zm15.9-5.8l11.6-19.5h1.5L112.1 27v12.6h-1.2V27L98.4 6.4h1.6l11.5 19.5zm32.7 3.8H128l-3.7 9.9H123l12.4-33.2h1.5l12.4 33.2H148l-3.8-9.9zm-15.8-1.2h15.3L136 7.9l-7.6 20.6z" fill="#3d3d3d" stroke="#3d3d3d" stroke-width=".5" stroke-miterlimit="10"/></svg>